<?xml version="1.0" standalone="no"?>
<!DOCTYPE svg PUBLIC "-//W3C//DTD SVG 20010904//EN"
 "http://www.w3.org/TR/2001/REC-SVG-20010904/DTD/svg10.dtd">
<svg version="1.0" xmlns="http://www.w3.org/2000/svg"
 width="648.000000pt" height="648.000000pt" viewBox="0 0 648.000000 648.000000"
 preserveAspectRatio="xMidYMid meet">
<metadata>
Created by potrace 1.14, written by Peter Selinger 2001-2017
</metadata>
<g transform="translate(0.000000,648.000000) scale(0.100000,-0.100000)"
fill="#000000" stroke="none">
<path d="M3070 5374 c-554 -78 -931 -366 -1047 -799 -24 -90 -26 -117 -26
-280 0 -149 3 -198 22 -284 81 -379 300 -620 774 -852 76 -37 202 -91 280
-120 611 -224 848 -365 956 -569 95 -178 95 -452 0 -630 -92 -174 -278 -295
-535 -350 -200 -43 -585 -38 -856 11 -200 36 -571 144 -669 195 l-29 15 0
-260 0 -260 78 -29 c457 -174 1168 -222 1645 -111 506 118 852 430 947 856 27
118 36 332 20 459 -32 254 -114 419 -296 594 -109 105 -219 179 -406 274 -143
72 -225 107 -543 232 -361 141 -569 257 -686 381 -115 123 -159 243 -160 438
-1 127 11 183 57 280 80 168 242 282 474 332 131 28 469 25 645 -6 154 -27
393 -94 538 -151 57 -22 107 -40 113 -40 5 0 46 102 90 226 l82 226 -55 24
c-169 75 -442 151 -666 185 -178 28 -594 35 -747 13z"/>
</g>
</svg>
