<?xml version="1.0" standalone="no"?>
<!DOCTYPE svg PUBLIC "-//W3C//DTD SVG 20010904//EN"
 "http://www.w3.org/TR/2001/REC-SVG-20010904/DTD/svg10.dtd">
<svg version="1.0" xmlns="http://www.w3.org/2000/svg"
 width="648.000000pt" height="648.000000pt" viewBox="0 0 648.000000 648.000000"
 preserveAspectRatio="xMidYMid meet">
<metadata>
Created by potrace 1.14, written by Peter Selinger 2001-2017
</metadata>
<g transform="translate(0.000000,648.000000) scale(0.100000,-0.100000)"
fill="#000000" stroke="none">
<path d="M3066 5399 c-682 -65 -1125 -408 -1253 -971 -25 -113 -23 -359 6
-463 59 -222 187 -388 406 -531 182 -118 384 -201 885 -364 607 -198 804 -290
965 -454 117 -119 168 -241 168 -406 1 -276 -159 -470 -473 -574 -143 -47
-265 -67 -455 -73 -273 -9 -525 27 -784 113 -157 52 -377 157 -504 239 -48 32
-89 56 -91 54 -3 -4 -76 -624 -76 -645 0 -26 229 -113 431 -164 283 -72 573
-104 939 -104 382 1 610 31 861 114 218 72 374 166 507 304 167 174 252 387
268 671 12 207 -25 403 -106 570 -116 240 -312 416 -632 570 -176 84 -340 144
-713 260 -555 174 -735 258 -875 412 -133 145 -163 352 -78 532 48 102 166
213 288 273 190 93 368 131 610 130 314 -1 590 -78 1037 -293 l162 -77 6 31
c6 37 55 536 55 559 0 44 -457 195 -740 243 -263 45 -607 64 -814 44z"/>
</g>
</svg>
